<svg fill="#000000" version="1.1" id="Capa_1" xmlns="http://www.w3.org/2000/svg" xmlns:xlink="http://www.w3.org/1999/xlink" viewBox="0 0 574.624 574.625" xml:space="preserve" transform="scale(-1, 1)">
    <g id="SVGRepo_bgCarrier" stroke-width="0"></g>
    <g id="SVGRepo_tracerCarrier" stroke-linecap="round" stroke-linejoin="round"></g>
    <g id="SVGRepo_iconCarrier">
        <g>
            <path d="M570.938,504.425c6.732-7.956,0-23.257-12.852-20.809c-82.008,17.136-166.464,1.225-249.084-1.224 c-45.288-1.225-90.576,2.448-135.864,4.284c-52.632,1.836-106.488-2.448-159.12,2.447c-1.224,0-2.448,0.612-3.672,1.225 c-3.06,0-6.12,1.836-6.732,6.12c-4.284,17.748-4.284,14.688-2.448,31.823c0.612,7.345,4.896,11.629,12.852,12.853 c72.216,9.18,144.432,3.672,217.26-0.612c70.992-4.284,140.148,0.612,211.14,5.508 C469.346,547.876,597.866,562.565,570.938,504.425z"></path>
            <path d="M346.945,333.065c-3.672-39.168-8.567-78.336-14.688-116.892c1.836-3.672,1.836-7.956-1.836-11.628 c-12.24-11.016-33.048-9.18-48.96-9.792c-17.748-0.612-36.108,1.836-53.244,6.12c-6.12-1.836-13.464,0.612-16.524,7.956 c-15.3,37.944-10.404,92.412-11.016,132.192c0,21.42-4.896,80.784,15.912,99.144c-0.612,6.12,3.06,12.853,11.016,13.464 c18.36,1.225,36.72-1.224,55.08-1.836c12.24-0.611,32.437,2.448,42.84-4.896c1.836-1.224,3.061-3.061,3.672-4.896 c3.673,0,6.732-1.836,8.568-4.896C355.514,405.893,350.618,366.725,346.945,333.065z"></path>
            <path d="M167.018,39.305c-0.612-8.568-7.344-12.24-13.464-11.628c-1.224-0.612-3.06-1.224-4.896-1.224 C115.61,25.841,78.89,22.169,48.29,36.857c-6.732-1.836-15.912,2.448-17.136,11.628c-17.136,129.132-4.896,271.116,9.18,400.86 c0.612,7.956,7.956,10.403,12.852,7.344c17.748,7.956,36.108,9.792,55.692,9.18c11.016-0.611,28.152-1.224,40.392-7.344 c5.508,1.836,11.628-1.224,12.24-9.18c4.896-66.097,2.448-133.416,3.06-199.512C166.406,179.453,170.078,109.073,167.018,39.305z"></path>
            <path d="M505.454,295.121c3.06-4.896,2.447-12.24-3.061-14.688c-14.076-6.12-33.048-0.612-48.348,0 c-20.809,0.612-41.616,0.612-62.424,1.836c-4.896,0-7.956,3.06-9.181,6.731c-0.611,1.225-1.224,1.836-1.836,3.061 c-5.508,18.359-1.224,39.78,0,58.14c1.225,26.316,2.448,53.244,3.672,79.561c0.612,5.508,5.509,9.18,9.792,9.18 c0.612,0.612,1.837,1.224,3.061,1.836c34.271,10.404,70.992,5.508,105.264-1.836c8.568-1.836,10.404-9.18,7.956-15.912 c0.612-0.612,0.612-0.612,1.225-1.224c4.896-8.568,3.672-20.809,4.283-30.601c0.612-14.688,1.225-29.987,1.225-44.676 C517.693,335.513,520.754,300.017,505.454,295.121z"></path>
        </g>
    </g>
</svg>
