<svg id="visual" viewBox="0 0 900 600" width="900" height="600" xmlns="http://www.w3.org/2000/svg" xmlns:xlink="http://www.w3.org/1999/xlink" version="1.1"><rect x="0" y="0" width="900" height="600" fill="#ffffff"></rect><defs><linearGradient id="grad1_0" x1="33.3%" y1="0%" x2="100%" y2="100%"><stop offset="20%" stop-color="#ffffff" stop-opacity="1"></stop><stop offset="80%" stop-color="#ffffff" stop-opacity="1"></stop></linearGradient></defs><defs><linearGradient id="grad2_0" x1="0%" y1="0%" x2="66.7%" y2="100%"><stop offset="20%" stop-color="#ffffff" stop-opacity="1"></stop><stop offset="80%" stop-color="#ffffff" stop-opacity="1"></stop></linearGradient></defs><g transform="translate(900, 0)"><path d="M0 444C-61.2 440.5 -122.4 437.1 -171.1 413C-219.7 388.9 -255.9 344.1 -303.3 303.3C-350.8 262.6 -409.6 225.8 -424.7 175.9C-439.9 126 -411.4 63 -383 0L0 0Z" fill="#FB7185"></path></g><g transform="translate(0, 600)"><path d="M0 -409C45.7 -389.7 91.5 -370.4 148.5 -358.5C205.5 -346.5 273.8 -342 306.2 -306.2C338.6 -270.3 335.2 -203.2 354.8 -147C374.4 -90.7 417 -45.4 459.7 0L0 0Z" fill="#FB7185"></path></g></svg>