<svg id="visual" viewBox="0 0 960 540" width="960" height="540" xmlns="http://www.w3.org/2000/svg" xmlns:xlink="http://www.w3.org/1999/xlink" version="1.1"><path d="M0 334L22.8 340.5C45.7 347 91.3 360 137 357.2C182.7 354.3 228.3 335.7 274 335.3C319.7 335 365.3 353 411.2 363.8C457 374.7 503 378.3 548.8 373C594.7 367.7 640.3 353.3 686 346.5C731.7 339.7 777.3 340.3 823 347.7C868.7 355 914.3 369 937.2 376L960 383L960 541L937.2 541C914.3 541 868.7 541 823 541C777.3 541 731.7 541 686 541C640.3 541 594.7 541 548.8 541C503 541 457 541 411.2 541C365.3 541 319.7 541 274 541C228.3 541 182.7 541 137 541C91.3 541 45.7 541 22.8 541L0 541Z" fill="#fa7268"></path><path d="M0 357L22.8 358.8C45.7 360.7 91.3 364.3 137 376.5C182.7 388.7 228.3 409.3 274 414.8C319.7 420.3 365.3 410.7 411.2 411C457 411.3 503 421.7 548.8 416.7C594.7 411.7 640.3 391.3 686 387.3C731.7 383.3 777.3 395.7 823 393.7C868.7 391.7 914.3 375.3 937.2 367.2L960 359L960 541L937.2 541C914.3 541 868.7 541 823 541C777.3 541 731.7 541 686 541C640.3 541 594.7 541 548.8 541C503 541 457 541 411.2 541C365.3 541 319.7 541 274 541C228.3 541 182.7 541 137 541C91.3 541 45.7 541 22.8 541L0 541Z" fill="#ef5f67"></path><path d="M0 460L22.8 451C45.7 442 91.3 424 137 414.3C182.7 404.7 228.3 403.3 274 404C319.7 404.7 365.3 407.3 411.2 416.8C457 426.3 503 442.7 548.8 448.3C594.7 454 640.3 449 686 441.5C731.7 434 777.3 424 823 421.5C868.7 419 914.3 424 937.2 426.5L960 429L960 541L937.2 541C914.3 541 868.7 541 823 541C777.3 541 731.7 541 686 541C640.3 541 594.7 541 548.8 541C503 541 457 541 411.2 541C365.3 541 319.7 541 274 541C228.3 541 182.7 541 137 541C91.3 541 45.7 541 22.8 541L0 541Z" fill="#e34c67"></path><path d="M0 465L22.8 460.8C45.7 456.7 91.3 448.3 137 447C182.7 445.7 228.3 451.3 274 453.2C319.7 455 365.3 453 411.2 452C457 451 503 451 548.8 452.2C594.7 453.3 640.3 455.7 686 453.7C731.7 451.7 777.3 445.3 823 449.5C868.7 453.7 914.3 468.3 937.2 475.7L960 483L960 541L937.2 541C914.3 541 868.7 541 823 541C777.3 541 731.7 541 686 541C640.3 541 594.7 541 548.8 541C503 541 457 541 411.2 541C365.3 541 319.7 541 274 541C228.3 541 182.7 541 137 541C91.3 541 45.7 541 22.8 541L0 541Z" fill="#d53867"></path><path d="M0 509L22.8 504C45.7 499 91.3 489 137 487C182.7 485 228.3 491 274 490.2C319.7 489.3 365.3 481.7 411.2 483.8C457 486 503 498 548.8 499C594.7 500 640.3 490 686 488.7C731.7 487.3 777.3 494.7 823 500.3C868.7 506 914.3 510 937.2 512L960 514L960 541L937.2 541C914.3 541 868.7 541 823 541C777.3 541 731.7 541 686 541C640.3 541 594.7 541 548.8 541C503 541 457 541 411.2 541C365.3 541 319.7 541 274 541C228.3 541 182.7 541 137 541C91.3 541 45.7 541 22.8 541L0 541Z" fill="#c62368"></path></svg>