<svg transform="scale(1)" version="1.1" id="Layer_1" xmlns="http://www.w3.org/2000/svg" xmlns:xlink="http://www.w3.org/1999/xlink" x="0px" y="0px" viewBox="0 0 500 500" xml:space="preserve" class="show_show__wrapper__graphic__5Waiy "><title>React</title><style type="text/css">
	.st0{fill:#FFFFFF;}
	.st1{fill:#111111;}
	.st2{fill:#000000;}
</style><g id="table"><path class="st0" d="M345.7,366.7c7.5,4.4,14.8,9.4,20.5,15.9s9.9,14.8,10.1,23.4c0.2,11.3-6.3,22-15.1,29s-19.8,10.9-30.7,13.7
		c-34.4,8.7-72.1,7.6-104.1-7.7c-13.6-6.5-26-15.5-38.9-23.2c-16.4-9.9-34.5-18.5-45.8-34c-6.4-8.9-9.9-21.7-3.1-30.3
		c4.3-5.5,11.6-7.7,18.5-8.4s14-0.2,20.8-1.7c8.7-1.9,16.4-6.9,24.9-9.8c19.3-6.8,40.4-2.4,59.6,2.6c18.4,4.7,36.8,8.7,54.4,16.1
		C326.7,356.3,336.4,361.2,345.7,366.7z"></path><path class="st1" d="M287.4,455c-22,0-43-4.5-61.4-13.3c-9.3-4.4-18.1-10.1-26.6-15.5c-4-2.6-8.2-5.3-12.4-7.8
		c-2.8-1.7-5.7-3.3-8.5-5c-13.8-8-28.1-16.2-37.5-29.3c-6.6-9.1-10.1-22.3-3.1-31.2c3.8-4.9,10.2-7.8,19-8.7c2.6-0.3,5.4-0.4,8-0.5
		c4.3,0,8.6-0.4,12.8-1.2c5.2-1.1,10.1-3.4,14.9-5.6c3.2-1.5,6.5-3,9.9-4.2c19.6-6.9,41.2-2.3,60,2.5c3.3,0.8,6.6,1.7,9.8,2.5
		c14.8,3.7,30.1,7.5,44.7,13.6c10,4.2,19.8,9.1,29.1,14.6l0,0c6.8,4,14.6,9.1,20.7,16c6.4,7.3,10.1,15.8,10.3,23.9
		c0.2,10.7-5.5,21.8-15.4,29.6c-9.7,7.7-21.7,11.4-31,13.8C316.5,453,302,454.9,287.4,455z M224.5,330.8c-7.3-0.1-14.6,1.1-21.5,3.4
		c-3.3,1.2-6.6,2.7-9.8,4.1c-4.8,2.2-9.9,4.5-15.2,5.7c-4.3,0.8-8.6,1.2-13,1.2c-2.6,0.1-5.3,0.2-7.9,0.5c-5.8,0.6-13.6,2.5-18,8.1
		c-6.5,8.3-3.1,20.8,3.2,29.4c9.2,12.8,23.4,20.9,37.1,28.8c2.8,1.6,5.7,3.3,8.5,5c4.2,2.5,8.4,5.2,12.4,7.8
		c8.5,5.4,17.2,11,26.4,15.4c29.9,14.3,66.7,17,103.6,7.6c9.2-2.3,21-6,30.5-13.5s15.1-18.2,14.9-28.4c-0.2-7.8-3.7-15.9-9.9-23
		c-6-6.8-13.6-11.8-20.3-15.7l0,0c-9.3-5.5-19-10.4-28.9-14.5c-14.5-6-29.7-9.9-44.5-13.5c-3.3-0.8-6.5-1.6-9.8-2.5
		C250.3,333.7,237.3,330.8,224.5,330.8z"></path><path class="st0" d="M170.3,334.9c-6.8,0.9-14,0.8-20.2,3.8c-2.1,1-4.1,2.4-6.5,2.5s-5-1.7-4.5-4c0.3-1.1,1-2.1,2-2.8
		c10.1-8.4,24.4-8.4,37.3-11.2c6.1-1.3,11.7-3.6,17.5-5.9c3.5-1.4,9-2.5,10.4,2.5C208.3,326.7,176,334.1,170.3,334.9z"></path><path class="st1" d="M143.3,341.9c-1.6,0-3.1-0.7-4.1-1.9c-0.8-0.8-1.1-2-0.9-3.1c0.4-1.3,1.2-2.5,2.3-3.2c7.8-6.4,18-8,28-9.6
		c3.2-0.5,6.5-1,9.6-1.7c5.9-1.3,11.3-3.4,17-5.7l0.4-0.2c2.4-1,5.9-1.9,8.5-0.6c1.5,0.7,2.5,2.1,2.9,3.6c0.3,1,0.1,2-0.5,2.8
		c-4.3,6.7-31.6,12.7-36.1,13.3l0,0c-1.7,0.2-3.5,0.4-5.3,0.6c-5,0.5-10.2,1-14.8,3.1l-1.4,0.7c-1.6,1-3.5,1.6-5.4,1.9L143.3,341.9z
		 M201.1,316.8c-1.7,0.1-3.4,0.5-5,1.1l-0.4,0.2c-5.8,2.3-11.2,4.5-17.2,5.8c-3.2,0.7-6.5,1.2-9.7,1.7c-9.7,1.5-19.8,3.1-27.2,9.3
		c-0.8,0.6-1.5,1.4-1.8,2.4c-0.1,0.7,0.1,1.3,0.6,1.8c0.8,0.9,2,1.4,3.2,1.3c1.7-0.2,3.3-0.8,4.8-1.7c0.5-0.2,0.9-0.5,1.4-0.7
		c4.8-2.3,10.1-2.8,15.3-3.3c1.7-0.2,3.5-0.3,5.2-0.6l0,0c5.6-0.8,31.3-6.9,35-12.6c0.3-0.4,0.5-1,0.3-1.6c-0.3-1.2-1-2.2-2.1-2.7
		C202.7,316.9,201.9,316.8,201.1,316.8z M170.3,334.9L170.3,334.9z"></path></g><g id="computer"><path class="st2" d="M284.2,337.9c1.4,9.4,2.6,19.4-1.5,27.9c-5.1,10.6-16.9,15.9-27.7,20.3c-5.4,2.2-10.9,4.4-16.7,4.5
		c-5.3,0.2-10.5-1.3-15.6-2.8l-58.9-17.4c9.6-6,20.1-11.5,36.6-13.9c13-1.9,21.1-16.7,24.7-29.3c3.2-11.2,1.1-23.1-1.6-34.4
		c-5.6-23.1-14.1-45.5-25.2-66.5l36.8-0.9c6.2-0.1,12.5-0.3,18.7-0.4c6-0.1,6.2-0.6,6.9,4.6c3.1,22.7,11.6,45.4,16.3,68.1
		C279.7,311,282.1,324.4,284.2,337.9z"></path><path class="st1" d="M236.3,385.6c-0.3,0-0.5-0.2-0.5-0.5c0-0.1,0.1-0.3,0.2-0.4c4.4-4.3,10.2-6.6,15.9-9
		c6.5-2.7,12.7-5.2,16.9-10.3c6.2-7.6,6-18.8,5.1-27.7c-2-20.2-6.9-40-14.5-58.8c-0.1-0.3,0-0.6,0.3-0.7s0.6,0,0.7,0.3
		c7.7,18.9,12.6,38.8,14.6,59.1c0.9,9.1,1.1,20.6-5.4,28.5c-4.4,5.3-11,8-17.3,10.6c-5.6,2.3-11.3,4.6-15.6,8.7
		C236.6,385.6,236.4,385.6,236.3,385.6z"></path><g id="presentation"><path class="st1" d="M396,293.5c3.6-32.8,22.3-188.4,25.7-219.8c0.4-3.3,0.3-7.3-3.2-8.5c-1.6-0.6-6.7-5.3-8.6-5.1
			c-9.2,0.8-26.9,2.5-35.9,3.3c-28.6,2.6-214.8,15.8-238.2,18c-4.9,0.4-10.6,1.4-13.6,5.3c-1.7,2.2-2.2,4.8-2.5,7.3
			c-3.6,25.2-29.9,151.3-33.6,177.5c-0.4,2.9-4.7,10.4-3.3,12.8c2.2,3.5,15.7,11.3,20.3,11.4c19.7,0.2,215.9,7.8,239.7,9.4
			c11.9,0.8,24.1,1.5,36.2,2.6C389.9,308.7,395.1,302,396,293.5z"></path></g><g id="presentation-2"><path class="st0" d="M387.8,286.1c3.6-32.8,22.3-188.4,25.7-219.8c0.4-3.3,0.3-7.3-3.2-8.5c-1.8-0.4-3.6-0.5-5.4-0.2L377.6,60
			C349,62.5,151,71.8,127.6,74c-4.8,0.4-10.6,1.4-13.6,5.3c-1.7,2.2-2.2,4.8-2.5,7.3c-3.6,25.2-25.6,163.1-29.3,189.3
			c-0.4,2.9-0.8,6,0.7,8.3c2.2,3.5,7.5,3.9,12.1,3.9c19.7,0.2,215.9,7.8,239.7,9.4c11.9,0.8,24,1.5,36.2,2.6
			C381.7,301.2,386.9,294.5,387.8,286.1z"></path><path class="st1" d="M372.8,301.1c-0.7,0-1.4,0-2.1-0.1c-8.8-0.8-17.8-1.4-26.4-2l-9.8-0.6c-24.3-1.7-219.6-9.2-239.6-9.4
			c-4.9-0.1-10.3-0.4-12.7-4.3c-1.7-2.7-1.2-6.2-0.8-8.8c1.8-13.1,8.4-55,14.8-95.6c6.3-40,12.8-81.3,14.5-93.8
			c0.3-2.3,0.7-5.2,2.6-7.7c3.2-4,9-5.1,14.2-5.6c11.4-1.1,63.6-3.8,118.9-6.6c57.2-3,116.4-6,131.1-7.3l27.3-2.5
			c1.9-0.3,3.8-0.2,5.7,0.3c4.5,1.6,3.9,7.2,3.7,9.3c-1.7,15.6-7.3,62.9-12.7,108.6c-5.5,46.6-11.2,94.7-13,111.2l0,0
			C387.5,295.6,381.7,301.1,372.8,301.1z M407.5,58.1c-0.9,0-1.7,0.1-2.6,0.2l-27.3,2.5c-14.6,1.3-73.9,4.4-131.1,7.4
			c-55.3,2.9-107.4,5.6-118.9,6.6c-4.9,0.5-10.3,1.4-13.1,5c-1.5,2-2,4.2-2.3,7c-1.8,12.6-8.2,53.9-14.5,93.8
			C91.3,221,84.7,262.9,82.8,276c-0.4,3.1-0.7,5.8,0.6,7.8c2,3.2,7,3.5,11.4,3.6c20,0.2,215.4,7.7,239.7,9.4
			c3.2,0.2,6.5,0.4,9.8,0.6c8.6,0.6,17.6,1.2,26.4,2c13.2,1.2,15.7-9,16.2-13.5c1.8-16.5,7.5-64.7,13-111.2
			c5.4-45.7,11-93,12.7-108.6c0.5-4.6-0.3-6.9-2.7-7.7C409.2,58.2,408.4,58.1,407.5,58.1L407.5,58.1z M387.8,286.1L387.8,286.1z"></path></g><path class="st2" d="M83.6,265.4c-0.5,3.5-1,7.1-1.5,10.5c-0.4,2.9-0.8,6,0.7,8.3c2.2,3.5,7.5,3.9,12.1,3.9
		c19.7,0.2,215.9,7.8,239.7,9.4c11.9,0.8,24,1.5,36.2,2.6c10.9,1,16.1-5.7,17-14.1l1-9.6L83.6,265.4z"></path><g id="presentation-3"><path class="st0" d="M376,253.7c2.8-25.9,17.8-149.1,20.5-174.1c0.3-2.7,0.2-5.8-3-6.8c-1.6-0.4-3.2-0.4-4.9-0.2l-24.8,2
			c-25.9,2-207.3,9.6-228.9,11.4c-4.5,0.4-9.8,1.1-12.5,4.3c-1.3,1.7-2.1,3.7-2.2,5.9c-2.8,20.3-20.5,130.8-23.4,151.7
			c-0.3,2.3-0.6,4.8,0.8,6.6c2.1,2.8,7,3,11.2,3c18.1,0,197.6,4.5,219.1,5.6c10.8,0.6,21.8,1,32.8,1.8
			C370.7,265.7,375.3,260.4,376,253.7z"></path><path class="st1" d="M362.5,265.8c-0.6,0-1.1,0-1.7-0.1c-8-0.6-16.1-1-23.9-1.3l-8.9-0.4c-22.1-1.1-200.7-5.6-219.1-5.6
			c-4.5,0-9.5-0.3-11.8-3.3c-1.7-2.2-1.3-5.1-1-7.2c1.4-10.5,6.7-44,11.8-76.4c5-32,10.2-65.2,11.6-75.3c0.1-2.3,0.9-4.5,2.3-6.3
			c2.9-3.3,8-4.1,13-4.5c10.6-0.9,58.6-3.1,109.4-5.4c52.3-2.4,106.3-4.9,119.6-6l24.8-2c1.7-0.2,3.5-0.2,5.1,0.2
			c4.2,1.3,3.7,5.9,3.5,7.6c-1.4,12.4-5.8,49.9-10.1,86.2c-4.4,36.8-8.9,74.9-10.3,87.9l0,0C376,261.4,370.7,265.8,362.5,265.8z
			 M391,73.2c-0.8,0-1.6,0.1-2.3,0.1l-24.8,2c-13.3,1-67.3,3.6-119.6,6c-50.8,2.3-98.7,4.6-109.3,5.4c-4.5,0.4-9.5,1.1-12,4
			c-1.3,1.5-1.7,3.3-2,5.5c-1.4,10.1-6.6,43.2-11.6,75.3c-5,32.4-10.3,65.9-11.7,76.4c-0.3,2.4-0.5,4.5,0.7,6.1
			c1.9,2.5,6.5,2.7,10.6,2.7c18.4,0,197,4.5,219.2,5.6l8.9,0.4c7.8,0.4,15.9,0.8,23.9,1.4c8.3,0.6,13.6-3.3,14.4-10.6
			c1.4-13,6-51.1,10.3-87.9c4.3-36.3,8.8-73.8,10.1-86.2c0.4-3.6-0.4-5.3-2.5-6C392.5,73.3,391.8,73.2,391,73.2z M376,253.7
			L376,253.7z"></path></g></g><g id="mouse"><path class="st0" d="M354.4,390.4c4.4,2.6,9.3,6.4,8.6,11.4c-0.5,4-4.5,6.6-8.1,8.6l-29,15.9c-6.3,3.4-13,7-20.1,6.6
		c-5.9-0.3,3.9,4.2-32.8-18.3c-2.1-1.3-4.4-2.8-4.9-5.3c-0.8-3.8,3.1-6.6,6.5-8.5l35.4-19.2c4.6-2.5,9.4-6.5,14.7-5.7
		C330.5,376.7,342.9,382,354.4,390.4z"></path><path class="st1" d="M303.2,433.7c-0.9,0-2-0.7-7.2-4c-4.2-2.7-11.2-7.2-23.3-14.6c-2.2-1.4-4.7-3.1-5.2-5.8
		c-0.7-3.3,1.6-6.4,6.9-9.3l35.4-19.2c1-0.5,2-1.1,3-1.8c3.8-2.3,7.8-4.7,12.2-4c5.9,0.9,18.3,6.4,29.8,14.7c4.2,2.5,9.7,6.5,9,12.1
		c-0.6,4.2-4.4,6.9-8.5,9.1l-29,15.9c-5.8,3.1-12.9,7.1-20.5,6.7c-0.6,0-1.2,0-1.8,0.1C303.7,433.7,303.5,433.7,303.2,433.7z
		 M323.5,376.5c-3.4,0-6.7,2-9.9,3.9c-1,0.6-2,1.2-3.1,1.8l-35.4,19.2c-4.6,2.5-6.7,5.1-6.1,7.7c0.4,2.1,2.5,3.5,4.5,4.8
		c12.1,7.4,19.1,11.9,23.4,14.6c6.1,3.9,6.1,3.9,6.9,3.7c0.7-0.1,1.4-0.2,2.2-0.1c7.1,0.4,14.1-3.5,19.7-6.5l29-15.9
		c3.7-2,7.3-4.4,7.7-8s-2.2-7-8.3-10.6h0c-11.3-8.2-23.4-13.6-29.2-14.4C324.4,376.5,323.9,376.5,323.5,376.5L323.5,376.5z"></path><path class="st2" d="M330.7,394.9l-8.1,6.8c-2.1,1.8-4.4,3.6-7.2,4.1c-0.8,0.2-1.7,0.1-2.5-0.2c-0.8-0.3-1.4-1.1-1.5-2
		c-0.1-1.2,1-2.2,1.9-2.9c4.3-3.5,8.9-6.6,13.7-9.4c1.3-0.8,4-2.9,5.5-1.5C334.3,391.4,331.9,393.8,330.7,394.9z"></path></g><g id="knife"><path class="st0" d="M14.3,253.7c-2.3-10.8,0.8-22,4.4-32.5c9-26.2,22.2-52.5,44.9-68.3c-5.5,29.2-11,58.3-16.5,87.5
		c-1.5,8.2-1.2,29.2-11.1,32.4C25.5,276.2,16.1,262.2,14.3,253.7z"></path><path class="st1" d="M32.8,274.1c-2.3,0-4.6-0.7-6.5-1.9c-6.5-3.8-11.4-12.2-12.7-18.3l0,0c-2.4-11.3,1-22.9,4.5-32.9
		c11.5-33.4,25.9-55.2,45.2-68.6c0.3-0.2,0.8-0.2,1,0.2c0.1,0.2,0.2,0.4,0.1,0.6l-16.5,87.5c-0.3,1.7-0.5,3.9-0.8,6.5
		c-1.1,10-2.5,23.8-10.8,26.4C35.1,273.9,33.9,274.1,32.8,274.1z M62.5,154.7c-18.3,13.3-32,34.6-43.1,66.8
		c-3.4,9.8-6.8,21.1-4.4,32.1l0,0c1.2,5.8,6.1,13.9,12,17.3c2.6,1.7,5.9,2.1,8.8,1.2c7.4-2.4,8.8-16.1,9.8-25.2
		c0.3-2.6,0.5-4.9,0.8-6.6L62.5,154.7z"></path><path class="st1" d="M18.3,336c0.4,1.2,1.7,2.6,5.6,1.7c2.3-0.6,4.5-1.6,6.4-3.1c7.3-5.8,7.8-10.9,8-15.6
		c0.7-16.8,1.5-33.6,2.2-50.4c0-0.9,0-1.7-1-2.2s-3.7-0.4-6,0.4c-3.6,1.3-7.4,13.8-8.4,16c-2.9,6-5.2,12.3-6.9,18.8
		C15,313.8,15.1,325.4,18.3,336z"></path></g><g id="fork"><path class="st1" d="M484.1,52.7c-1.4,0-2.5,1-2.6,2.4c-0.3,7.4-0.6,15-2.7,22s-5.8,12.4-9.9,14.4c-1.5,0.7-3.3,1-5,0.6l9.2-43.3
		c0.2-1.4-0.8-2.6-2.1-2.8c-1.3-0.2-2.4,0.6-2.8,1.8l-8.9,42c-0.4-0.4-0.7-0.8-1.1-1.2c-2.7-3.5-4.1-9.3-3.8-15.6
		c0.5-6.7,2.3-13.3,5.1-19.4c0.6-1.2,0.2-2.7-1.1-3.4c-1.2-0.6-2.7-0.2-3.4,1.1c-0.1,0.1-0.1,0.2-0.1,0.3c-3.1,6.7-5,13.8-5.6,21.2
		c-0.4,7.5,1.4,14.4,4.8,18.9c1.1,1.4,2.4,2.6,3.9,3.6l-1.8,8.6h-0.2c-3.6,0.8-8.7,20.2-9.9,23.4c-3.6,9.3-6.5,18.9-8.7,28.7
		c-4.3,18.9-5.6,38.3-3.8,57.6c0.2,2.2,1.4,5,5.1,5c2.4-0.1,4.7-1.1,6.5-2.8c7.6-6.8,8.7-15.2,9.4-23l8-83.3
		c0.1-1.4,0.2-2.9-0.7-4.1c-0.2-0.2-0.4-0.4-0.6-0.6l1.6-7.7c0.8,0.2,1.6,0.3,2.5,0.3c2,0,3.9-0.5,5.7-1.3
		c5.4-2.6,10.1-9.1,12.5-17.5c2.2-7.6,2.6-15.6,2.9-23.3C486.6,54,485.5,52.8,484.1,52.7C484.1,52.7,484.1,52.7,484.1,52.7z"></path></g><g id="food-menu"><path class="st0" d="M217.5,191.6c-1.2,3.4,0.1,7.2,3.2,9c2.9,1.7,6.5,1.9,10.1,2c9,0.1,17.9-0.4,26.8-1.7c2.8-0.4,5.8-0.9,8.2-2.8
		s4.1-5.4,2.7-7.5c-1-1.5-3-1.8-4.9-2c-8.7-0.9-17.5-1.1-26.3-0.8c-4.1,0.2-7.5,0.4-11.1-0.5C223.1,186.6,219.1,187.4,217.5,191.6z"></path><path class="st1" d="M233.7,203.4c-0.9,0-1.9,0-2.8,0c-3.6-0.1-7.5-0.3-10.5-2.1c-3.4-2-4.9-6.2-3.6-9.9l0,0
		c1.8-4.7,6.3-5.4,9.6-4.7s6.6,0.7,10.4,0.5h0.5c8.8-0.4,17.6-0.1,26.4,0.8c2,0.2,4.3,0.6,5.4,2.3c1.7,2.5-0.2,6.5-2.9,8.5
		s-5.6,2.5-8.5,2.9C249.8,202.8,241.7,203.4,233.7,203.4z M218.2,191.8c-1.1,3.1,0.1,6.4,2.9,8.1c2.7,1.6,6.3,1.8,9.8,1.9
		c8.9,0.1,17.8-0.4,26.6-1.7c2.7-0.4,5.6-0.9,7.9-2.6c2.1-1.6,3.6-4.7,2.5-6.5c-0.8-1.2-2.6-1.5-4.3-1.6c-8.7-0.9-17.5-1.1-26.2-0.8
		h-0.5c-3.9,0.2-7.2,0.3-10.8-0.6C223.3,187.4,219.6,188,218.2,191.8L218.2,191.8z"></path><path class="st2" d="M223.2,184.6c-1.6,0.3-3,1.4-3.7,2.9c-0.5,1.4-0.1,3,1.1,3.9c1.2,0.8,2.5,1.3,3.9,1.5
		c12.4,2.5,25.1,2.5,37.6,0.2c2.3-0.4,4.9-1.1,6.2-3.2c1.2-2,0.6-4.7-1.5-5.9c0,0-0.1-0.1-0.1-0.1c-1.9-1.1-4.5-0.9-6.9-0.8
		l-20.2,1.3c-3.2,0.2-6.8,0.8-9.9,0.6C227.9,184.9,224.9,183.6,223.2,184.6z"></path><path class="st1" d="M264.1,177.9c2.1,0.6,4.2,1.4,5.2,3.3s-0.2,5.2-2.6,5.8c-2,0.5-3.5-1.2-5.5-0.9c-2.7,0.4-4.5,4-7.2,4.7
		s-4.4-2-6.9-2.3c-3.4-0.4-7.3,3.4-10.6,2.6c-2.3-0.5-3.4-3.2-5.7-3.6c-3.8-0.6-11,3.9-10.4-3.5c0.4-4.8,6.2-6.4,10-7.3
		C241.9,173.9,253.9,174.9,264.1,177.9z"></path><path class="st0" d="M240,164.9c6.9-1,13.6,0.3,20.2,1.7c2.4,0.4,4.7,1.1,6.8,2.3c2.1,1.2,3.3,3.6,3.1,6c-0.3,2.4-2.2,4.7-4.4,6
		c-2.2,1.3-4.7,2.1-7.2,2.5c-6.2,1.2-12.5,1.8-18.8,1.6c-4.7-0.1-13.8,0.1-17.2-2.9C214.3,175.1,235.1,165.8,240,164.9z"></path><path class="st1" d="M242.3,185.8c-0.9,0-1.7,0-2.6-0.1h-2c-5.3-0.1-12.4-0.2-15.6-3c-2.3-2-2.4-4.1-2-5.4
		c1.7-6.3,15.7-12.4,19.8-13.1l0,0c6.9-1,13.3,0.2,20.4,1.7c2.5,0.4,4.9,1.2,7.1,2.4c2.3,1.4,3.7,4,3.5,6.7
		c-0.5,2.8-2.3,5.2-4.7,6.6c-2.3,1.3-4.8,2.2-7.5,2.6C253.2,185.3,247.8,185.8,242.3,185.8z M240.1,165.6c-4,0.8-17.2,6.7-18.6,12.1
		c-0.4,1.4,0.1,2.7,1.5,3.9c2.8,2.4,9.9,2.5,14.7,2.6h2.1c6.2,0.2,12.5-0.3,18.6-1.6c2.5-0.4,4.8-1.2,7-2.4c2.1-1.1,3.5-3.1,4-5.5
		c0.1-2.1-0.9-4.2-2.8-5.3c-2-1.1-4.3-1.9-6.6-2.2C253,165.8,246.7,164.7,240.1,165.6z"></path><path class="st0" d="M312.2,189.9c-1.1,2-2.2,4.2-1.7,6.1c0.4,1.7,1.9,2.6,3.5,3.4c10,4.8,23.1,4.3,34.8-1.4c1.5-0.6,2.9-1.7,3.9-3
		c1.1-1.8,0.8-3.8,0.4-5.6l-8.3-39.7c-1.7-8.3-8.4-0.7-10.8,4.4c-3.6,7.7-9.6,15.1-14,22.6C317.2,180.9,314.7,185.4,312.2,189.9z"></path><path class="st1" d="M329.1,203.4c-5.3,0-10.6-1.1-15.4-3.4c-1.5-0.7-3.4-1.8-3.9-3.9s0.6-4.4,1.8-6.6c2.4-4.5,5-9,7.6-13.4
		c1.7-2.8,3.6-5.7,5.5-8.5c3.2-4.4,6-9.1,8.5-14c1.4-2.9,5.4-8.9,8.9-8.4c1.6,0.2,2.7,1.6,3.3,4.3l8.3,39.7c0.4,1.9,0.7,4.2-0.5,6.2
		c-1,1.5-2.5,2.6-4.2,3.3C342.9,201.7,336,203.3,329.1,203.4z M341.8,146.7c-2.1,0-5.5,3.9-7.2,7.6c-2.5,4.9-5.4,9.7-8.6,14.2
		c-1.9,2.8-3.8,5.6-5.5,8.4c-2.6,4.4-5.2,8.9-7.6,13.4l0,0c-1,1.8-2,3.9-1.6,5.5c0.4,1.4,1.7,2.2,3.1,2.9c9.8,4.7,22.6,4.2,34.1-1.4
		c1.4-0.6,2.6-1.5,3.5-2.7c0.9-1.5,0.7-3.4,0.3-5.1l-8.3-39.7c-0.3-1.3-0.9-3-2-3.1L341.8,146.7z M312.2,189.9L312.2,189.9z"></path><path class="st2" d="M313,194.8c0.6,2.2,2.6,3.4,4.6,4.3c8.4,3.8,19.4,2.8,28.8-2.5c2.3-1.3,4.8-3.4,5-5.8c0.1-2.3-2-3.7-4.2-3.7
		s-4.5,1-6.8,1.7c-5.6,1.9-11.7,2.3-17.5,1.2c-1.9-0.4-4.7-2.2-6.7-1.5C313.6,189.3,312.4,192.8,313,194.8z"></path><path class="st1" d="M327.9,174.9c1.7-0.8,3.7-0.1,4.5,1.6c0.1,0.2,0.1,0.3,0.2,0.5c0.4,1.9-1.1,4.4-3.1,5.2
		c-1.7,0.8-3.7,0.1-4.4-1.6c-0.1-0.2-0.1-0.4-0.2-0.5C324.6,177.9,325.8,175.7,327.9,174.9"></path><path class="st1" d="M343.4,153.7c-3,0.8-5.5,2.9-6.6,5.8c-1.1,2.8-0.5,5.9,1.4,7.5s5.1,1.8,7.8,0.4"></path><path class="st1" d="M342.7,179c-1.8-0.2-3.5,0.9-4.2,2.5c-0.6,1.4,0,3,1.3,3.6c0.1,0.1,0.3,0.1,0.4,0.2c1.8,0.1,3.5-0.9,4.2-2.6
		c0.6-1.4,0-3-1.4-3.7c-0.1-0.1-0.2-0.1-0.3-0.1"></path><path class="st2" d="M135.6,196.1c-0.2,1.4,0,2.8,0.6,4c1,1.5,3.1,1.7,5,1.8c3.6,0.2,7.3,0.4,10.9,0.6c2.5,0.1,5.2,0.2,7.5-1.5
		c2.1-1.5,3.1-4,4-6.3c3.7-9.6,6.5-19.5,8.5-29.5c0.4-2.2,0.8-4.7-0.4-6.4c-1.4-1.9-4.2-2-6.7-2c-4.3,0.1-8.6,0.3-12.9,0.5
		c-2.2,0.1-4.5,0.3-6.7,0.4c-1.4,0.1-4.1-0.2-5.5,0.8c-2,1.5-1.4,6.1-1.7,8.1c-0.7,4.6-1.2,9.2-1.6,13.7
		C136.2,185.7,135.8,190.9,135.6,196.1z"></path><path class="st0" d="M137,162.2l34.7,1.1c0.8,0.1,1.7,0,2.5-0.3c2.1-0.8,3.1-3.2,2.3-5.3c-0.5-1.3-1.7-2.2-3.1-2.5
		c-1.7-0.4-3.4-0.5-5.1-0.3l-19.1,0.9c-2.9,0.1-6.6-0.4-9.5,0.4C137.1,157,136.7,159.9,137,162.2z"></path><path class="st1" d="M172.3,164h-0.6l-34.7-1c-0.4,0-0.7-0.3-0.7-0.7c-0.4-3.6,0.7-6.1,3.2-6.8c2.2-0.5,4.5-0.7,6.7-0.5
		c1,0,2,0.1,2.9,0l19.2-0.9c1.8-0.2,3.6-0.1,5.4,0.3c2.6,0.5,4.3,3.1,3.8,5.7c-0.3,1.6-1.4,2.9-2.9,3.5
		C173.8,164,173,164.1,172.3,164z M137.7,161.4l34.1,1.1c0.7,0.1,1.5,0,2.1-0.2c1.7-0.7,2.5-2.6,1.9-4.3c-0.4-1.1-1.4-1.9-2.6-2.1
		c-1.6-0.4-3.2-0.4-4.9-0.3l-19.2,0.9c-1,0-2,0-3,0c-2.1-0.2-4.2,0-6.3,0.4C137.8,157.5,137.6,160,137.7,161.4L137.7,161.4z"></path><path class="st0" d="M160.4,146.2c0.2-0.4,0.5-0.7,0.9-1c0.6-0.3,1.4-0.4,2.1-0.3l3.3,0.3c1.5,0.1,3.1,0.3,4.1,1.3l0,0
		c1.3,1.3-0.6,3.9-2.4,3.4c-1.2-0.4-2.5-0.6-3.7-0.8c-1.2-0.1-2.2,0.7-2.5,1.8l-1.7,5.9c-0.3,1-1.2,1.7-2.2,1.8
		c-2.6,0.1-3.1-0.4-0.9-6.3C158.1,150.1,159.2,148.1,160.4,146.2z"></path><path class="st1" d="M157.7,159.3c-0.8,0.1-1.6-0.2-2.1-0.8c-0.7-0.9-0.4-2.5,1.1-6.6c0.8-2.2,1.8-4.2,3.1-6.2
		c0.3-0.5,0.7-0.9,1.2-1.2c0.8-0.4,1.7-0.6,2.5-0.4l3.3,0.3c1.5,0.1,3.3,0.3,4.5,1.5c0.8,0.9,0.9,2.2,0.2,3.1
		c-0.6,1.2-2,1.8-3.4,1.5c-1.2-0.3-2.4-0.6-3.6-0.8c-0.8,0-1.5,0.5-1.7,1.2l-1.7,5.9c-0.4,1.3-1.5,2.2-2.9,2.3L157.7,159.3z
		 M162.7,145.6c-0.3,0-0.6,0.1-0.9,0.2c-0.3,0.2-0.5,0.5-0.7,0.8l0,0c-1.2,1.9-2.2,3.8-2.9,5.9c-0.4,1.1-1.7,4.6-1.3,5.1
		c0.1,0.1,0.4,0.2,1.4,0.1c0.7-0.1,1.3-0.6,1.5-1.2l1.7-5.9c0.4-1.5,1.8-2.4,3.4-2.3c1.3,0.2,2.6,0.5,3.8,0.8
		c0.7,0.1,1.3-0.3,1.6-0.9c0.1-0.2,0.4-0.8,0-1.3c-0.9-0.9-2.4-1-3.7-1.1l-3.3-0.3C163.1,145.6,162.9,145.6,162.7,145.6L162.7,145.6
		z M160.4,146.2L160.4,146.2z"></path><path class="st1" d="M137.8,182.8c-0.2,0.9-0.1,1.9,0.3,2.7c0.6,0.9,2,1,3.2,1.1l21.2,0.5c0.8,0.1,1.6-0.1,2.4-0.4
		c1-0.8,1.7-2,1.9-3.3l2.5-9.5c0.2-0.8,0.4-1.8-0.1-2.3c-0.5-0.4-1.2-0.6-1.8-0.5l-21.4,0.5c-1.8,0-5.5-0.6-6.9,1.4
		S138,180.5,137.8,182.8z"></path><path class="st1" d="M183.5,240.6L183.5,240.6c-0.3,0-0.5-0.3-0.5-0.6l0.3-2.7c0-0.2,0.2-0.4,0.4-0.4L209.4,114
		c0.1-0.3,0.3-0.4,0.6-0.4c0,0,0,0,0,0c0.3,0.1,0.4,0.3,0.4,0.6l-26.4,126C184,240.5,183.8,240.6,183.5,240.6z"></path><path class="st1" d="M281.2,240.6L281.2,240.6c-0.3,0-0.5-0.3-0.5-0.6l0.3-2.7c0-0.2,0.2-0.4,0.4-0.4L307,114
		c0.1-0.3,0.3-0.4,0.6-0.4c0,0,0,0,0,0c0.3,0.1,0.4,0.3,0.4,0.6c0,0,0,0,0,0l-26.3,126C281.6,240.4,281.4,240.6,281.2,240.6z"></path><path class="st1" d="M124.2,217.4c-2.2,0.2-4.3,0.9-6.3,1.9c-1.9,1.1-3.3,2.9-3,4.9c0.2,1.7,1.8,3.2,3.6,4c1.9,0.7,3.8,1.2,5.8,1.3
		c12.5,1.6,25.3,3.2,37.6,0.5c2.9-0.6,5.9-1.6,8.1-3.4c3.1-2.6,4.1-7.2,0.1-9.5c-2.9-1.7-7.9-0.8-11.3-1
		C147.3,215.2,135.7,215.6,124.2,217.4z"></path><path class="st1" d="M215.7,217.4c-2.2,0.2-4.3,0.9-6.3,1.9c-1.9,1.1-3.3,2.9-3,4.9c0.2,1.7,1.8,3.2,3.6,4c1.9,0.7,3.8,1.2,5.8,1.3
		c12.5,1.6,25.4,3.2,37.6,0.5c2.9-0.6,5.9-1.6,8.1-3.4c3.1-2.6,4.1-7.2,0.1-9.5c-2.9-1.7-7.9-0.8-11.3-1
		C238.8,215.2,227.2,215.6,215.7,217.4z"></path><path class="st1" d="M310.2,217.4c-2.2,0.2-4.3,0.9-6.3,1.9c-1.9,1.1-3.3,2.9-3,4.9c0.2,1.7,1.8,3.2,3.6,4c1.9,0.7,3.8,1.2,5.8,1.3
		c12.5,1.6,25.4,3.2,37.6,0.5c2.9-0.5,5.7-1.6,8.1-3.4c3.1-2.6,4.1-7.2,0.1-9.5c-2.9-1.7-7.9-0.8-11.3-1
		C333.3,215.2,321.6,215.6,310.2,217.4z"></path></g><g id="canopy"><path class="st1" d="M82.4,114.4c1,3.5,3.1,6.6,6,8.7c10.6,8.4,27.7,5.4,35.1-6.2c4.5,10.7,15.6,17.9,26.6,17.4s21.5-8.6,25.2-19.6
		c3.8,11.2,14.9,19.2,26.1,18.7s21.8-9.3,24.7-20.8c4.5,10.6,15.1,17.9,26.1,18c11,0.1,21.8-7,26.4-17.5c3.1,11,13.3,19.4,24.2,19.9
		s21.8-6.7,25.9-17.3c0.3,10.3,11.2,17.9,20.8,16.4s17.4-10,21.1-19.6s4.1-20.1,4.2-30.5L253.8,91l-120.7,8.9l-33.9,2.5
		C91.8,102.9,79.6,102.2,82.4,114.4z"></path><path class="st2" d="M227.2,77.6c-26.9,0.9-53.9,1.8-80.5,6.2c-21.9,3.7-43.5,10-63.1,20.2c-1.7,0.9-2.4,3.1-1.5,4.8
		c0.6,1.2,1.9,1.9,3.2,1.9l149.5-5.2c28.8-1,57.7-2,86.4,0c15.2,1.1,30.7,3,45.4-1c13.6-3.7,26.5-14,29.2-27.6
		c0.3-1.8-0.8-3.6-2.7-4c-8.4-1.8-17.7-0.1-26.3,0.1l-34.3,1.1l-67.6,2.2C252.4,76.8,239.8,77.1,227.2,77.6z"></path><path class="st1" d="M329.8,104.2c-0.3,0-0.5-0.2-0.5-0.5c0-0.1,0-0.2,0.1-0.3c8.9-10,18.8-19,29.6-26.9c0.2-0.2,0.5-0.1,0.7,0.1
		c0.2,0.2,0.1,0.5-0.1,0.7l0,0c-10.7,7.9-20.6,16.8-29.4,26.7C330,104.1,329.9,104.2,329.8,104.2z"></path><path class="st1" d="M280.3,101.3c-0.1,0-0.2,0-0.3-0.1c-0.2-0.2-0.3-0.5-0.1-0.7c7.5-10,16.7-18.5,27.3-25.1
		c0.2-0.1,0.5-0.1,0.7,0.2c0.1,0.2,0.1,0.5-0.2,0.7c-10.5,6.5-19.6,15-27,24.9C280.7,101.2,280.5,101.3,280.3,101.3z"></path><path class="st1" d="M225.8,102.6c-0.1,0-0.2,0-0.3-0.1c-0.2-0.2-0.3-0.5-0.1-0.7c6.3-8.9,14.1-16.5,23.1-22.7
		c0.2-0.2,0.5-0.1,0.7,0.1c0.2,0.2,0.1,0.5-0.1,0.7c0,0,0,0,0,0c-8.8,6.1-16.6,13.7-22.8,22.5C226.1,102.5,226,102.6,225.8,102.6z"></path><path class="st1" d="M174.8,105.1c-0.1,0-0.3-0.1-0.4-0.2c-0.2-0.2-0.2-0.5,0-0.7c9.6-9.7,20.7-17.7,32.9-23.7
		c0.2-0.1,0.5,0,0.7,0.2c0.1,0.2,0,0.5-0.2,0.7c-12.1,6-23.1,13.9-32.6,23.5C175,105,174.9,105.1,174.8,105.1z"></path><path class="st1" d="M125.8,106.3c-0.2,0-0.3-0.1-0.4-0.2c-0.2-0.2-0.1-0.5,0.1-0.7c0,0,0,0,0,0c11.2-8.9,23.5-16.5,36.6-22.4
		c0.2-0.1,0.5,0,0.7,0.2c0,0,0,0,0,0c0.1,0.3,0,0.6-0.2,0.7c-13,5.9-25.2,13.4-36.4,22.2C126.1,106.2,126,106.3,125.8,106.3z"></path></g></svg>